<svg class="main-svg" xmlns="http://www.w3.org/2000/svg" xmlns:xlink="http://www.w3.org/1999/xlink" width="2200" height="1000" style="" viewBox="0 0 1100 500"><rect x="0" y="0" width="1100" height="500" style="fill: rgb(255, 255, 255); fill-opacity: 1;"/><defs id="defs-5b6b5d"><g class="clips"><clipPath id="clip5b6b5dxyplot" class="plotclip"><rect width="1006" height="385"/></clipPath><clipPath class="axesclip" id="clip5b6b5dx"><rect x="68" y="0" width="1006" height="500"/></clipPath><clipPath class="axesclip" id="clip5b6b5dy"><rect x="0" y="50" width="1100" height="385"/></clipPath><clipPath class="axesclip" id="clip5b6b5dxy"><rect x="68" y="50" width="1006" height="385"/></clipPath></g><g class="gradients"/><g class="patterns"/></defs><g class="bglayer"/><g class="layer-below"><g class="imagelayer"/><g class="shapelayer"/></g><g class="cartesianlayer"><g class="subplot xy"><g class="layer-subplot"><g class="shapelayer"/><g class="imagelayer"/></g><g class="minor-gridlayer"><g class="x"/><g class="y"/></g><g class="gridlayer"><g class="x"><path class="xgrid crisp" transform="translate(269.2,0)" d="M0,50v385" style="stroke: rgb(0, 0, 0); stroke-opacity: 0.05; stroke-width: 1px;"/><path class="xgrid crisp" transform="translate(470.4,0)" d="M0,50v385" style="stroke: rgb(0, 0, 0); stroke-opacity: 0.05; stroke-width: 1px;"/><path class="xgrid crisp" transform="translate(671.6,0)" d="M0,50v385" style="stroke: rgb(0, 0, 0); stroke-opacity: 0.05; stroke-width: 1px;"/><path class="xgrid crisp" transform="translate(872.8,0)" d="M0,50v385" style="stroke: rgb(0, 0, 0); stroke-opacity: 0.05; stroke-width: 1px;"/></g><g class="y"><path class="ygrid crisp" transform="translate(0,395.88)" d="M68,0h1006" style="stroke: rgb(0, 0, 0); stroke-opacity: 0.05; stroke-width: 1px;"/><path class="ygrid crisp" transform="translate(0,356.76)" d="M68,0h1006" style="stroke: rgb(0, 0, 0); stroke-opacity: 0.05; stroke-width: 1px;"/><path class="ygrid crisp" transform="translate(0,317.64)" d="M68,0h1006" style="stroke: rgb(0, 0, 0); stroke-opacity: 0.05; stroke-width: 1px;"/><path class="ygrid crisp" transform="translate(0,278.52)" d="M68,0h1006" style="stroke: rgb(0, 0, 0); stroke-opacity: 0.05; stroke-width: 1px;"/><path class="ygrid crisp" transform="translate(0,239.4)" d="M68,0h1006" style="stroke: rgb(0, 0, 0); stroke-opacity: 0.05; stroke-width: 1px;"/><path class="ygrid crisp" transform="translate(0,200.28)" d="M68,0h1006" style="stroke: rgb(0, 0, 0); stroke-opacity: 0.05; stroke-width: 1px;"/><path class="ygrid crisp" transform="translate(0,161.16)" d="M68,0h1006" style="stroke: rgb(0, 0, 0); stroke-opacity: 0.05; stroke-width: 1px;"/><path class="ygrid crisp" transform="translate(0,122.04)" d="M68,0h1006" style="stroke: rgb(0, 0, 0); stroke-opacity: 0.05; stroke-width: 1px;"/><path class="ygrid crisp" transform="translate(0,82.92)" d="M68,0h1006" style="stroke: rgb(0, 0, 0); stroke-opacity: 0.05; stroke-width: 1px;"/></g></g><g class="zerolinelayer"><path class="xzl zl crisp" transform="translate(68,0)" d="M0,50v385" style="stroke: rgb(0, 0, 0); stroke-opacity: 0.05; stroke-width: 2px;"/><path class="yzl zl crisp" transform="translate(0,435)" d="M68,0h1006" style="stroke: rgb(0, 0, 0); stroke-opacity: 0.05; stroke-width: 2px;"/></g><g class="layer-between"><g class="shapelayer"/><g class="imagelayer"/></g><path class="xlines-below"/><path class="ylines-below"/><g class="overlines-below"/><g class="xaxislayer-below"/><g class="yaxislayer-below"/><g class="overaxes-below"/><g class="overplot"><g class="xy" transform="translate(68,50)" clip-path="url(#clip5b6b5dxyplot)"><g class="scatterlayer mlayer"><g class="trace scatter trace9f6f3a" style="stroke-miterlimit: 2; opacity: 1;"><g class="fills"/><g class="errorbars"/><g class="lines"><path class="js-line" d="M0,385L201.2,384.36L211.26,383.3L221.32,382.24L231.38,382.24L241.44,382.24L251.5,377.3L261.56,372.36L271.62,372.36L281.68,372.36L291.74,357.42L301.8,342.49L311.86,342.49L321.92,342.49L331.98,311.37L342.04,280.25L352.1,280.25L362.16,280.25L372.22,233.33L382.28,186.4L392.34,186.4L412.46,87.15L422.52,87.15L432.58,87.15L442.64,55.18L452.7,23.21L462.76,23.21L472.82,23.21L482.88,24.86L492.94,26.52L503,26.52L513.06,26.52L523.12,60.47L533.18,94.41L543.24,94.41L553.3,94.41L563.36,143.24L573.42,192.06L583.48,192.06L593.54,192.06L603.6,236.72L613.66,281.38L623.72,281.38L643.84,340.48L653.9,340.48L663.96,340.48L674.02,355.31L684.08,370.15L694.14,370.15L704.2,370.15L714.26,375.71L724.32,381.28L734.38,381.28L744.44,381.28L754.5,382.8L764.56,384.31L774.62,384.31L1006,384.92" style="vector-effect: none; fill: none; stroke: rgb(92, 184, 92); stroke-opacity: 1; stroke-width: 2px; opacity: 1;"/></g><g class="points"/><g class="text"/></g><g class="trace scatter trace68a500" style="stroke-miterlimit: 2; opacity: 1;"><g class="fills"/><g class="errorbars"/><g class="lines"><path class="js-line" d="M0,383.91L50.3,381.12L60.36,380.84L100.6,379.19L110.66,378.61L150.9,375.72L160.96,373.37L171.02,372.01L181.08,369.75L191.14,367.49L201.2,364.26L211.26,361.04L221.32,356.67L231.38,346.77L241.44,341.24L261.56,326.55L271.62,321.66L281.68,307.99L291.74,299.19L331.98,266.63L342.04,255.09L352.1,230.54L362.16,217.54L382.28,194.22L392.34,185.08L402.4,175.94L412.46,169.85L422.52,161.16L432.58,158.55L452.7,159.24L462.76,156.95L472.82,157.03L482.88,159.38L513.06,164L523.12,165.81L533.18,172.34L543.24,182.95L563.36,191.66L573.42,196.29L583.48,201.93L593.54,217.67L623.72,247.62L633.78,256.32L653.9,274.47L663.96,293.99L674.02,304.06L684.08,312.85L714.26,340.03L724.32,346.11L734.38,357.03L744.44,361.86L774.62,368.69L784.68,372.57L804.8,375.71L814.86,376.91L865.16,379.65L875.22,379.87L935.58,380.5L945.64,380.43L965.76,380.16L975.82,379.3L985.88,378.64L995.94,374.34L1006,370.03" style="vector-effect: none; fill: none; stroke: rgb(92, 184, 92); stroke-opacity: 1; stroke-width: 2px; opacity: 1;"/></g><g class="points"/><g class="text"/></g><g class="trace scatter trace14e97c" style="stroke-miterlimit: 2; opacity: 1;"><g class="fills"/><g class="errorbars"/><g class="lines"><path class="js-line" d="M0,385L201.2,384.39L211.26,383.34L221.32,382.29L231.38,382.29L241.44,382.29L251.5,377.37L261.56,372.45L271.62,372.45L281.68,372.45L291.74,357.57L301.8,342.69L311.86,342.69L321.92,342.69L331.98,311.61L342.04,280.53L352.1,280.53L362.16,280.53L372.22,233.58L382.28,186.63L392.34,186.63L412.46,87.38L422.52,87.38L432.58,87.38L442.64,55.35L452.7,23.33L462.76,23.33L472.82,23.33L482.88,24.91L492.94,26.49L503,26.49L513.06,26.49L523.12,60.11L533.18,93.73L543.24,93.73L553.3,93.73L563.36,142.77L573.42,191.81L583.48,191.81L593.54,191.81L603.6,236.56L613.66,281.3L623.72,281.3L643.84,340.4L653.9,340.4L663.96,340.4L674.02,355.27L684.08,370.13L694.14,370.13L704.2,370.13L714.26,375.7L724.32,381.28L734.38,381.28L744.44,381.28L754.5,382.79L764.56,384.31L774.62,384.31L1006,384.77" style="vector-effect: none; fill: none; stroke: rgb(92, 184, 92); stroke-opacity: 1; stroke-width: 2px; opacity: 1;"/></g><g class="points"/><g class="text"/></g><g class="trace scatter tracee3dbad" style="stroke-miterlimit: 2; opacity: 1;"><g class="fills"/><g class="errorbars"/><g class="lines"><path class="js-line" d="M0,383.88L50.3,381.07L60.36,380.85L100.6,379.41L110.66,378.9L140.84,377.07L150.9,376.1L160.96,373.76L171.02,372.39L191.14,367.93L201.2,364.73L211.26,361.54L221.32,357.17L231.38,347.32L241.44,341.83L261.56,327.09L271.62,322.27L281.68,308.6L291.74,299.75L331.98,267.32L342.04,255.86L352.1,231.31L362.16,218.21L382.28,194.61L392.34,185.39L402.4,176.17L412.46,169.98L422.52,161.06L432.58,158.33L452.7,159.38L462.76,156.85L472.82,156.73L482.88,159.14L513.06,162.77L523.12,164.25L533.18,171.07L543.24,181.49L553.3,185.09L563.36,189.59L573.42,194.09L583.48,199.54L593.54,215.73L603.6,226.48L633.78,255.32L643.84,264.38L653.9,273.82L663.96,293.5L674.02,303.75L684.08,312.82L714.26,340.23L724.32,346.33L734.38,357.33L744.44,362.23L774.62,368.86L784.68,372.78L794.74,374.79L804.8,375.95L824.92,377.71L834.98,378.31L885.28,380.24L895.34,380.37L955.7,380.61L965.76,380.45L985.88,379.22L995.94,375.48L1006,371.73" style="vector-effect: none; fill: none; stroke: rgb(92, 184, 92); stroke-opacity: 1; stroke-width: 2px; opacity: 1;"/></g><g class="points"/><g class="text"/></g><g class="trace scatter tracef6fc9a" style="stroke-miterlimit: 2; opacity: 1;"><g class="fills"/><g class="errorbars"/><g class="lines"><path class="js-line" d="M0,385L201.2,384.43L211.26,383.43L221.32,382.43L231.38,382.43L241.44,382.43L251.5,377.63L261.56,372.82L271.62,372.82L281.68,372.82L291.74,358.17L301.8,343.52L311.86,343.52L321.92,343.52L331.98,312.71L342.04,281.89L352.1,281.89L362.16,281.89L372.22,235.1L382.28,188.31L392.34,188.31L412.46,88.42L422.52,88.42L432.58,88.42L442.64,55.87L452.7,23.32L462.76,23.32L472.82,23.32L482.88,24.23L492.94,25.14L503,25.14L513.06,25.14L523.12,58.77L533.18,92.41L543.24,92.41L553.3,92.41L563.36,141.33L573.42,190.26L583.48,190.26L593.54,190.26L603.6,235.34L613.66,280.42L623.72,280.42L643.84,340.05L653.9,340.05L663.96,340.05L674.02,355.09L684.08,370.13L694.14,370.13L704.2,370.13L714.26,375.72L724.32,381.32L734.38,381.32L744.44,381.32L754.5,382.82L764.56,384.33L774.62,384.33L1006,384.95" style="vector-effect: none; fill: none; stroke: rgb(92, 184, 92); stroke-opacity: 1; stroke-width: 2px; opacity: 1;"/></g><g class="points"/><g class="text"/></g><g class="trace scatter trace689e7e" style="stroke-miterlimit: 2; opacity: 1;"><g class="fills"/><g class="errorbars"/><g class="lines"><path class="js-line" d="M0,384.14L40.24,381.56L50.3,381.48L110.66,379.93L120.72,379.53L150.9,377.89L160.96,375.96L171.02,374.78L181.08,372.78L191.14,370.78L201.2,367.87L211.26,364.95L221.32,360.84L231.38,351.57L241.44,346.41L261.56,332L271.62,327.91L281.68,314.91L291.74,306L331.98,275L342.04,263.45L352.1,238.4L362.16,224.89L382.28,199.53L392.34,189.55L402.4,179.57L412.46,172.95L422.52,162.94L432.58,159.56L452.7,160.49L462.76,156.69L472.82,154.84L482.88,156.79L513.06,156.65L523.12,156.98L533.18,164.15L543.24,174.19L553.3,177.06L563.36,180.75L573.42,184.45L583.48,189.53L593.54,206.59L603.6,218.57L623.72,239.95L633.78,249.12L653.9,268.28L663.96,289.18L674.02,300.09L684.08,309.75L714.26,339.62L724.32,346.07L734.38,357.61L744.44,362.69L774.62,369.1L784.68,373.11L794.74,375.19L804.8,376.33L824.92,378.01L834.98,378.55L895.34,380.41L905.4,380.53L965.76,380.24L975.82,379.3L985.88,378.59L995.94,372.93L1006,367.27" style="vector-effect: none; fill: none; stroke: rgb(92, 184, 92); stroke-opacity: 1; stroke-width: 2px; opacity: 1;"/></g><g class="points"/><g class="text"/></g><g class="trace scatter trace092a53" style="stroke-miterlimit: 2; opacity: 1;"><g class="fills"/><g class="errorbars"/><g class="lines"><path class="js-line" d="M0,385L201.2,384.38L211.26,383.34L221.32,382.3L231.38,382.3L241.44,382.3L251.5,377.42L261.56,372.53L271.62,372.53L281.68,372.53L291.74,357.71L301.8,342.9L311.86,342.9L321.92,342.9L331.98,311.75L342.04,280.61L352.1,280.61L362.16,280.61L372.22,233.65L382.28,186.7L392.34,186.7L412.46,87.41L422.52,87.41L432.58,87.41L442.64,55.09L452.7,22.77L462.76,22.77L472.82,22.77L482.88,24.33L492.94,25.89L503,25.89L513.06,25.89L523.12,59.85L533.18,93.81L543.24,93.81L553.3,93.81L563.36,142.85L573.42,191.89L583.48,191.89L593.54,191.89L603.6,236.69L613.66,281.49L623.72,281.49L643.84,340.55L653.9,340.55L663.96,340.55L674.02,355.42L684.08,370.3L694.14,370.3L704.2,370.3L714.26,375.8L724.32,381.31L734.38,381.31L744.44,381.31L754.5,382.82L764.56,384.34L774.62,384.34L1006,384.87" style="vector-effect: none; fill: none; stroke: rgb(92, 184, 92); stroke-opacity: 1; stroke-width: 2px; opacity: 1;"/></g><g class="points"/><g class="text"/></g><g class="trace scatter trace11ae21" style="stroke-miterlimit: 2; opacity: 1;"><g class="fills"/><g class="errorbars"/><g class="lines"><path class="js-line" d="M0,384.14L40.24,381.29L50.3,381.16L100.6,379.3L110.66,378.75L150.9,375.8L160.96,373.42L171.02,372.02L181.08,369.68L191.14,367.33L201.2,364.18L211.26,361.02L221.32,356.64L231.38,346.82L241.44,341.39L261.56,326.9L271.62,321.93L281.68,308.2L291.74,299.45L331.98,267.07L342.04,255.72L352.1,231.63L362.16,218.89L382.28,196.28L392.34,187.26L402.4,178.25L412.46,172.3L422.52,163.67L432.58,161.01L452.7,161.47L462.76,158.87L472.82,158.74L482.88,161.2L523.12,166.75L533.18,173.3L543.24,183.37L553.3,186.9L573.42,195.74L583.48,201.25L593.54,216.97L603.6,227.18L633.78,255.11L643.84,263.94L653.9,273.37L663.96,292.79L674.02,302.77L684.08,311.59L714.26,338.89L724.32,345.01L734.38,356.01L744.44,360.87L774.62,367.84L784.68,371.78L804.8,375L814.86,376.23L865.16,379.07L875.22,379.29L935.58,379.84L945.64,379.74L965.76,379.37L975.82,378.34L985.88,377.58L995.94,372.74L1006,367.91" style="vector-effect: none; fill: none; stroke: rgb(92, 184, 92); stroke-opacity: 1; stroke-width: 2px; opacity: 1;"/></g><g class="points"/><g class="text"/></g><g class="trace scatter traceee0f45" style="stroke-miterlimit: 2; opacity: 1;"><g class="fills"/><g class="errorbars"/><g class="lines"><path class="js-line" d="M0,385L201.2,384.32L211.26,383.2L221.32,382.09L231.38,382.09L241.44,382.09L251.5,376.92L261.56,371.74L271.62,371.74L281.68,371.74L291.74,356.24L301.8,340.75L311.86,340.75L321.92,340.75L331.98,308.45L342.04,276.15L352.1,276.15L362.16,276.15L372.22,228.12L382.28,180.1L392.34,180.1L412.46,80.58L422.52,80.58L432.58,80.58L442.64,50.09L452.7,19.6L462.76,19.6L472.82,19.6L482.88,24.14L492.94,28.69L503,28.69L513.06,28.69L523.12,64.42L533.18,100.16L543.24,100.16L553.3,100.16L563.36,149.6L573.42,199.04L583.48,199.04L593.54,199.04L603.6,242.56L613.66,286.08L623.72,286.08L643.84,342.78L653.9,342.78L663.96,342.78L674.02,356.79L684.08,370.8L694.14,370.8L704.2,370.8L714.26,376.12L724.32,381.45L734.38,381.45L744.44,381.45L754.5,382.89L764.56,384.33L774.62,384.33L1006,384.94" style="vector-effect: none; fill: none; stroke: rgb(92, 184, 92); stroke-opacity: 1; stroke-width: 2px; opacity: 1;"/></g><g class="points"/><g class="text"/></g><g class="trace scatter trace88a00d" style="stroke-miterlimit: 2; opacity: 1;"><g class="fills"/><g class="errorbars"/><g class="lines"><path class="js-line" d="M0,384.06L50.3,381.33L60.36,381.08L100.6,379.44L110.66,378.93L150.9,376.24L160.96,374L181.08,370.57L191.14,368.49L211.26,362.55L221.32,358.72L231.38,350.2L241.44,345.5L261.56,333.24L271.62,328.73L281.68,315.53L291.74,306.85L321.92,284.47L331.98,277.33L342.04,266.24L352.1,241.55L362.16,227.97L372.22,216.31L382.28,204.65L392.34,194.58L402.4,184.52L412.46,175.99L422.52,163.43L432.58,159.4L452.7,157.92L462.76,155.6L472.82,156.08L482.88,158.89L503,161.24L513.06,161.44L523.12,161.64L533.18,169.26L543.24,180.96L553.3,185.04L583.48,199.12L593.54,213.24L613.66,231.11L623.72,239.58L643.84,253.34L653.9,263.19L663.96,283.78L674.02,294.52L694.14,313.12L704.2,324.35L714.26,335.57L724.32,342.38L734.38,354.61L744.44,360.04L774.62,366.28L784.68,370.82L794.74,373.13L804.8,374.6L814.86,376.07L824.92,376.75L865.16,378.91L875.22,379.08L945.64,379.53L955.7,379.45L965.76,379.19L975.82,378.11L985.88,377.3L995.94,371.94L1006,366.57" style="vector-effect: none; fill: none; stroke: rgb(92, 184, 92); stroke-opacity: 1; stroke-width: 2px; opacity: 1;"/></g><g class="points"/><g class="text"/></g><g class="trace scatter trace2fecd0" style="stroke-miterlimit: 2; opacity: 1;"><g class="fills"/><g class="errorbars"/><g class="lines"><path class="js-line" d="M0,385L201.2,384.36L211.26,383.26L221.32,382.15L231.38,382.15L241.44,382.15L251.5,377L261.56,371.85L271.62,371.85L281.68,371.85L291.74,356.39L301.8,340.93L311.86,340.93L321.92,340.93L331.98,308.63L342.04,276.33L352.1,276.33L362.16,276.33L372.22,228.43L382.28,180.53L392.34,180.53L412.46,80.9L422.52,80.9L432.58,80.9L442.64,50.32L452.7,19.73L462.76,19.73L472.82,19.73L482.88,23.89L492.94,28.05L503,28.05L513.06,28.05L523.12,64.04L533.18,100.03L543.24,100.03L553.3,100.03L563.36,149.4L573.42,198.77L583.48,198.77L593.54,198.77L603.6,242.37L613.66,285.96L623.72,285.96L643.84,342.69L653.9,342.69L663.96,342.69L674.02,356.71L684.08,370.73L694.14,370.73L704.2,370.73L714.26,376.09L724.32,381.45L734.38,381.45L744.44,381.45L754.5,382.88L764.56,384.3L774.62,384.3L1006,384.8" style="vector-effect: none; fill: none; stroke: rgb(92, 184, 92); stroke-opacity: 1; stroke-width: 2px; opacity: 1;"/></g><g class="points"/><g class="text"/></g><g class="trace scatter trace1dceb7" style="stroke-miterlimit: 2; opacity: 1;"><g class="fills"/><g class="errorbars"/><g class="lines"><path class="js-line" d="M0,384.03L40.24,381.45L50.3,381.36L110.66,379.09L120.72,378.58L150.9,376.5L160.96,374.25L171.02,372.92L181.08,370.8L191.14,368.69L201.2,365.81L211.26,362.93L221.32,359.01L231.38,350.42L241.44,345.74L261.56,333.4L271.62,329.05L281.68,315.91L291.74,307.11L331.98,277.78L342.04,266.49L352.1,241.94L362.16,228.67L382.28,204.63L392.34,194.77L402.4,184.91L412.46,176.16L422.52,163.28L432.58,159.16L452.7,158.29L462.76,155.79L472.82,156.09L482.88,158.88L503,160.69L513.06,160.63L523.12,160.58L533.18,168.53L543.24,180.3L553.3,184.12L583.48,197.25L593.54,211.36L613.66,229.88L623.72,238.65L643.84,252.19L653.9,262.17L663.96,283.12L674.02,294.1L694.14,313.14L704.2,324.45L714.26,335.77L724.32,342.62L734.38,354.92L744.44,360.35L774.62,366.41L784.68,370.99L794.74,373.37L804.8,374.79L824.92,376.91L834.98,377.62L885.28,379.41L895.34,379.56L955.7,379.78L965.76,379.55L985.88,377.98L995.94,373.3L1006,368.61" style="vector-effect: none; fill: none; stroke: rgb(92, 184, 92); stroke-opacity: 1; stroke-width: 2px; opacity: 1;"/></g><g class="points"/><g class="text"/></g><g class="trace scatter trace2a1158" style="stroke-miterlimit: 2; opacity: 1;"><g class="fills"/><g class="errorbars"/><g class="lines"><path class="js-line" d="M0,385L201.2,384.39L211.26,383.34L221.32,382.29L231.38,382.29L241.44,382.29L251.5,377.25L261.56,372.21L271.62,372.21L281.68,372.21L291.74,357.02L301.8,341.84L311.86,341.84L321.92,341.84L331.98,309.69L342.04,277.54L352.1,277.54L362.16,277.54L372.22,229.74L382.28,181.94L392.34,181.94L412.46,82.08L422.52,82.08L432.58,82.08L442.64,50.88L452.7,19.68L462.76,19.68L472.82,19.68L482.88,23.29L492.94,26.9L503,26.9L513.06,26.9L523.12,62.62L533.18,98.35L543.24,98.35L553.3,98.35L563.36,147.84L573.42,197.34L583.48,197.34L593.54,197.34L603.6,241.26L613.66,285.17L623.72,285.17L643.84,342.46L653.9,342.46L663.96,342.46L674.02,356.62L684.08,370.77L694.14,370.77L704.2,370.77L714.26,376.13L724.32,381.49L734.38,381.49L744.44,381.49L754.5,382.92L764.56,384.35L774.62,384.35L1006,384.95" style="vector-effect: none; fill: none; stroke: rgb(92, 184, 92); stroke-opacity: 1; stroke-width: 2px; opacity: 1;"/></g><g class="points"/><g class="text"/></g><g class="trace scatter trace2dec99" style="stroke-miterlimit: 2; opacity: 1;"><g class="fills"/><g class="errorbars"/><g class="lines"><path class="js-line" d="M0,384.29L40.24,381.82L50.3,381.75L120.72,379.82L130.78,379.4L150.9,378.28L160.96,376.43L181.08,373.4L191.14,371.51L211.26,366.33L221.32,362.76L231.38,354.83L241.44,350.47L261.56,338.5L271.62,334.86L281.68,322.42L291.74,313.61L331.98,286.35L342.04,275.12L352.1,250.03L362.16,236.16L382.28,211.13L392.34,200.21L402.4,189.29L412.46,179.85L422.52,165.52L432.58,160.63L452.7,160.13L462.76,156.38L472.82,155.46L482.88,158.29L503,157.56L513.06,155.34L523.12,153.11L533.18,161.53L543.24,173.08L553.3,176.2L583.48,187.22L593.54,201.81L603.6,212.86L613.66,221.99L623.72,231.12L633.78,237.67L643.84,244.23L653.9,254.88L663.96,277.04L674.02,288.54L694.14,309.42L704.2,322.02L714.26,334.62L724.32,341.86L734.38,354.76L744.44,360.42L774.62,366.3L784.68,371.04L794.74,373.59L804.8,375.03L814.86,376.47L824.92,377.08L865.16,379.09L875.22,379.24L945.64,379.57L955.7,379.47L965.76,379.2L975.82,378.04L985.88,377.15L995.94,370.01L1006,362.87" style="vector-effect: none; fill: none; stroke: rgb(92, 184, 92); stroke-opacity: 1; stroke-width: 2px; opacity: 1;"/></g><g class="points"/><g class="text"/></g><g class="trace scatter tracec659d9" style="stroke-miterlimit: 2; opacity: 1;"><g class="fills"/><g class="errorbars"/><g class="lines"><path class="js-line" d="M0,385L201.2,384.34L211.26,383.25L221.32,382.15L231.38,382.15L241.44,382.15L251.5,377.06L261.56,371.96L271.62,371.96L281.68,371.96L291.74,356.51L301.8,341.06L311.86,341.06L321.92,341.06L331.98,308.8L342.04,276.53L352.1,276.53L362.16,276.53L372.22,228.52L382.28,180.51L392.34,180.51L412.46,80.74L422.52,80.74L432.58,80.74L442.64,50L452.7,19.25L462.76,19.25L472.82,19.25L482.88,23.64L492.94,28.02L503,28.02L513.06,28.02L523.12,63.93L533.18,99.83L543.24,99.83L553.3,99.83L563.36,149.29L573.42,198.75L583.48,198.75L593.54,198.75L603.6,242.4L613.66,286.04L623.72,286.04L643.84,342.89L653.9,342.89L663.96,342.89L674.02,356.85L684.08,370.8L694.14,370.8L704.2,370.8L714.26,376.16L724.32,381.53L734.38,381.53L744.44,381.53L754.5,382.93L764.56,384.33L774.62,384.33L1006,384.89" style="vector-effect: none; fill: none; stroke: rgb(92, 184, 92); stroke-opacity: 1; stroke-width: 2px; opacity: 1;"/></g><g class="points"/><g class="text"/></g><g class="trace scatter trace00643c" style="stroke-miterlimit: 2; opacity: 1;"><g class="fills"/><g class="errorbars"/><g class="lines"><path class="js-line" d="M0,384.29L40.24,381.55L50.3,381.45L100.6,379.59L110.66,379.07L150.9,376.29L160.96,373.99L171.02,372.64L181.08,370.52L191.14,368.4L201.2,365.48L211.26,362.56L221.32,358.72L231.38,350.17L241.44,345.47L261.56,333.18L271.62,328.69L281.68,315.49L291.74,306.79L331.98,277.5L342.04,266.46L352.1,242.11L362.16,228.79L382.28,205.87L392.34,196.2L402.4,186.53L412.46,177.99L422.52,165.55L432.58,161.65L452.7,160.06L462.76,157.51L472.82,157.94L482.88,160.92L503,163.29L513.06,162.94L523.12,162.59L533.18,170.29L543.24,181.83L553.3,185.67L583.48,198.95L593.54,212.92L613.66,230.62L623.72,239.03L643.84,252.32L653.9,262.29L663.96,282.77L674.02,293.27L694.14,312.33L704.2,323.54L714.26,334.75L724.32,341.6L734.38,353.8L744.44,359.14L774.62,365.54L784.68,370.12L804.8,373.96L814.86,375.5L865.16,378.33L875.22,378.5L935.58,378.84L945.64,378.72L965.76,378.27L975.82,376.99L985.88,376.05L995.94,369.92L1006,363.78" style="vector-effect: none; fill: none; stroke: rgb(92, 184, 92); stroke-opacity: 1; stroke-width: 2px; opacity: 1;"/></g><g class="points"/><g class="text"/></g></g></g></g><path class="xlines-above crisp" d="M0,0" style="fill: none;"/><path class="ylines-above crisp" d="M0,0" style="fill: none;"/><g class="overlines-above"/><g class="xaxislayer-above"><g class="xtick"><text text-anchor="middle" x="0" y="451" transform="translate(68,0)" style="font-family: 'Lucida Grande', 'Open Sans', verdana, arial, sans-serif; font-size: 10px; fill: rgb(0, 0, 0); fill-opacity: 1; white-space: pre; opacity: 1;">0%</text></g><g class="xtick"><text text-anchor="middle" x="0" y="451" style="font-family: 'Lucida Grande', 'Open Sans', verdana, arial, sans-serif; font-size: 10px; fill: rgb(0, 0, 0); fill-opacity: 1; white-space: pre; opacity: 1;" transform="translate(269.2,0)">20%</text></g><g class="xtick"><text text-anchor="middle" x="0" y="451" style="font-family: 'Lucida Grande', 'Open Sans', verdana, arial, sans-serif; font-size: 10px; fill: rgb(0, 0, 0); fill-opacity: 1; white-space: pre; opacity: 1;" transform="translate(470.4,0)">40%</text></g><g class="xtick"><text text-anchor="middle" x="0" y="451" style="font-family: 'Lucida Grande', 'Open Sans', verdana, arial, sans-serif; font-size: 10px; fill: rgb(0, 0, 0); fill-opacity: 1; white-space: pre; opacity: 1;" transform="translate(671.6,0)">60%</text></g><g class="xtick"><text text-anchor="middle" x="0" y="451" style="font-family: 'Lucida Grande', 'Open Sans', verdana, arial, sans-serif; font-size: 10px; fill: rgb(0, 0, 0); fill-opacity: 1; white-space: pre; opacity: 1;" transform="translate(872.8,0)">80%</text></g><g class="xtick"><text text-anchor="middle" x="0" y="451" style="font-family: 'Lucida Grande', 'Open Sans', verdana, arial, sans-serif; font-size: 10px; fill: rgb(0, 0, 0); fill-opacity: 1; white-space: pre; opacity: 1;" transform="translate(1074,0)">100%</text></g></g><g class="yaxislayer-above"><g class="ytick"><text text-anchor="end" x="62" y="3.5" transform="translate(0,435)" style="font-family: 'Lucida Grande', 'Open Sans', verdana, arial, sans-serif; font-size: 10px; fill: rgb(0, 0, 0); fill-opacity: 1; white-space: pre; opacity: 1;">0%</text></g><g class="ytick"><text text-anchor="end" x="62" y="3.5" style="font-family: 'Lucida Grande', 'Open Sans', verdana, arial, sans-serif; font-size: 10px; fill: rgb(0, 0, 0); fill-opacity: 1; white-space: pre; opacity: 1;" transform="translate(0,395.88)">0.5%</text></g><g class="ytick"><text text-anchor="end" x="62" y="3.5" style="font-family: 'Lucida Grande', 'Open Sans', verdana, arial, sans-serif; font-size: 10px; fill: rgb(0, 0, 0); fill-opacity: 1; white-space: pre; opacity: 1;" transform="translate(0,356.76)">1%</text></g><g class="ytick"><text text-anchor="end" x="62" y="3.5" style="font-family: 'Lucida Grande', 'Open Sans', verdana, arial, sans-serif; font-size: 10px; fill: rgb(0, 0, 0); fill-opacity: 1; white-space: pre; opacity: 1;" transform="translate(0,317.64)">1.5%</text></g><g class="ytick"><text text-anchor="end" x="62" y="3.5" style="font-family: 'Lucida Grande', 'Open Sans', verdana, arial, sans-serif; font-size: 10px; fill: rgb(0, 0, 0); fill-opacity: 1; white-space: pre; opacity: 1;" transform="translate(0,278.52)">2%</text></g><g class="ytick"><text text-anchor="end" x="62" y="3.5" style="font-family: 'Lucida Grande', 'Open Sans', verdana, arial, sans-serif; font-size: 10px; fill: rgb(0, 0, 0); fill-opacity: 1; white-space: pre; opacity: 1;" transform="translate(0,239.4)">2.5%</text></g><g class="ytick"><text text-anchor="end" x="62" y="3.5" style="font-family: 'Lucida Grande', 'Open Sans', verdana, arial, sans-serif; font-size: 10px; fill: rgb(0, 0, 0); fill-opacity: 1; white-space: pre; opacity: 1;" transform="translate(0,200.28)">3%</text></g><g class="ytick"><text text-anchor="end" x="62" y="3.5" style="font-family: 'Lucida Grande', 'Open Sans', verdana, arial, sans-serif; font-size: 10px; fill: rgb(0, 0, 0); fill-opacity: 1; white-space: pre; opacity: 1;" transform="translate(0,161.16)">3.5%</text></g><g class="ytick"><text text-anchor="end" x="62" y="3.5" style="font-family: 'Lucida Grande', 'Open Sans', verdana, arial, sans-serif; font-size: 10px; fill: rgb(0, 0, 0); fill-opacity: 1; white-space: pre; opacity: 1;" transform="translate(0,122.04)">4%</text></g><g class="ytick"><text text-anchor="end" x="62" y="3.5" style="font-family: 'Lucida Grande', 'Open Sans', verdana, arial, sans-serif; font-size: 10px; fill: rgb(0, 0, 0); fill-opacity: 1; white-space: pre; opacity: 1;" transform="translate(0,82.92)">4.5%</text></g></g><g class="overaxes-above"/></g></g><g class="polarlayer"/><g class="smithlayer"/><g class="ternarylayer"/><g class="geolayer"/><g class="funnelarealayer"/><g class="pielayer"/><g class="iciclelayer"/><g class="treemaplayer"/><g class="sunburstlayer"/><g class="glimages"/><defs id="topdefs-5b6b5d"><g class="clips"/></defs><g class="layer-above"><g class="imagelayer"/><g class="shapelayer"/></g><g class="infolayer"><g class="g-gtitle"><text class="gtitle" x="550" y="25" text-anchor="middle" dy="0em" style="opacity: 1; font-family: 'Lucida Grande', 'Open Sans', verdana, arial, sans-serif; font-size: 20px; fill: rgb(42, 63, 95); fill-opacity: 1; white-space: pre;"><tspan class="line" dy="0em" x="550" y="25">FastQC: Per Sequence GC Content</tspan><tspan class="line" dy="1.3em" x="550" y="25">​<tspan style="font-size:70%" dy="-0.6em">Percentages, 16 samples</tspan><tspan dy="0.42em">​</tspan></tspan></text></g><g class="g-xtitle"><text class="xtitle" x="571" y="472.3" text-anchor="middle" style="opacity: 0.3; font-family: 'Lucida Grande', 'Open Sans', verdana, arial, sans-serif; font-size: 14px; fill: rgb(0, 0, 0); fill-opacity: 1; white-space: pre;">% GC</text></g><g class="g-ytitle"><text class="ytitle" transform="rotate(-90,22.19375,242.5)" x="22.19375" y="242.5" text-anchor="middle" style="opacity: 0.3; font-family: 'Lucida Grande', 'Open Sans', verdana, arial, sans-serif; font-size: 14px; fill: rgb(0, 0, 0); fill-opacity: 1; white-space: pre;">Percentage</text></g></g></svg>