<svg class="main-svg" xmlns="http://www.w3.org/2000/svg" xmlns:xlink="http://www.w3.org/1999/xlink" width="2200" height="1000" style="" viewBox="0 0 1100 500"><rect x="0" y="0" width="1100" height="500" style="fill: rgb(255, 255, 255); fill-opacity: 1;"/><defs id="defs-64d2c9"><g class="clips"><clipPath id="clip64d2c9xyplot" class="plotclip"><rect width="1010" height="385"/></clipPath><clipPath class="axesclip" id="clip64d2c9x"><rect x="64" y="0" width="1010" height="500"/></clipPath><clipPath class="axesclip" id="clip64d2c9y"><rect x="0" y="50" width="1100" height="385"/></clipPath><clipPath class="axesclip" id="clip64d2c9xy"><rect x="64" y="50" width="1010" height="385"/></clipPath></g><g class="gradients"/><g class="patterns"/></defs><g class="bglayer"/><g class="layer-below"><g class="imagelayer"/><g class="shapelayer"/></g><g class="cartesianlayer"><g class="subplot xy"><g class="layer-subplot"><g class="shapelayer"/><g class="imagelayer"/></g><g class="minor-gridlayer"><g class="x"/><g class="y"/></g><g class="gridlayer"><g class="x"><path class="xgrid crisp" transform="translate(266,0)" d="M0,50v385" style="stroke: rgb(0, 0, 0); stroke-opacity: 0.05; stroke-width: 1px;"/><path class="xgrid crisp" transform="translate(468,0)" d="M0,50v385" style="stroke: rgb(0, 0, 0); stroke-opacity: 0.05; stroke-width: 1px;"/><path class="xgrid crisp" transform="translate(670,0)" d="M0,50v385" style="stroke: rgb(0, 0, 0); stroke-opacity: 0.05; stroke-width: 1px;"/><path class="xgrid crisp" transform="translate(872,0)" d="M0,50v385" style="stroke: rgb(0, 0, 0); stroke-opacity: 0.05; stroke-width: 1px;"/></g><g class="y"><path class="ygrid crisp" transform="translate(0,359.11)" d="M64,0h1010" style="stroke: rgb(0, 0, 0); stroke-opacity: 0.05; stroke-width: 1px;"/><path class="ygrid crisp" transform="translate(0,283.21000000000004)" d="M64,0h1010" style="stroke: rgb(0, 0, 0); stroke-opacity: 0.05; stroke-width: 1px;"/><path class="ygrid crisp" transform="translate(0,207.32)" d="M64,0h1010" style="stroke: rgb(0, 0, 0); stroke-opacity: 0.05; stroke-width: 1px;"/><path class="ygrid crisp" transform="translate(0,131.42000000000002)" d="M64,0h1010" style="stroke: rgb(0, 0, 0); stroke-opacity: 0.05; stroke-width: 1px;"/><path class="ygrid crisp" transform="translate(0,55.53)" d="M64,0h1010" style="stroke: rgb(0, 0, 0); stroke-opacity: 0.05; stroke-width: 1px;"/></g></g><g class="zerolinelayer"><path class="xzl zl crisp" transform="translate(64,0)" d="M0,50v385" style="stroke: rgb(0, 0, 0); stroke-opacity: 0.05; stroke-width: 2px;"/><path class="yzl zl crisp" transform="translate(0,435)" d="M64,0h1010" style="stroke: rgb(0, 0, 0); stroke-opacity: 0.05; stroke-width: 2px;"/></g><g class="layer-between"><g class="shapelayer"/><g class="imagelayer"/></g><path class="xlines-below"/><path class="ylines-below"/><g class="overlines-below"/><g class="xaxislayer-below"/><g class="yaxislayer-below"/><g class="overaxes-below"/><g class="overplot"><g class="xy" transform="translate(64,50)" clip-path="url(#clip64d2c9xyplot)"><g class="scatterlayer mlayer"><g class="trace scatter trace2dfaf6" style="stroke-miterlimit: 2; opacity: 1;"><g class="fills"/><g class="errorbars"/><g class="lines"><path class="js-line" d="M0,385L202,384.35L212.1,383.28L222.2,382.21L232.3,382.21L242.4,382.21L252.5,377.22L262.6,372.22L272.7,372.22L282.8,372.22L292.9,357.12L303,342.02L313.1,342.02L323.2,342.02L333.3,310.56L343.4,279.11L353.5,279.11L363.6,279.11L373.7,231.67L383.8,184.22L393.9,184.22L414.1,83.89L424.2,83.89L434.3,83.89L444.4,51.57L454.5,19.25L464.6,19.25L474.7,19.25L484.8,20.92L494.9,22.6L505,22.6L515.1,22.6L525.2,56.92L535.3,91.24L545.4,91.24L555.5,91.24L565.6,140.59L575.7,189.95L585.8,189.95L595.9,189.95L606,235.1L616.1,280.25L626.2,280.25L646.4,339.99L656.5,339.99L666.6,339.99L676.7,354.99L686.8,369.98L696.9,369.98L707,369.98L717.1,375.61L727.2,381.24L737.3,381.24L747.4,381.24L757.5,382.77L767.6,384.3L777.7,384.3L1010,384.92" style="vector-effect: none; fill: none; stroke: rgb(92, 184, 92); stroke-opacity: 1; stroke-width: 2px; opacity: 1;"/></g><g class="points"/><g class="text"/></g><g class="trace scatter trace2dd3d4" style="stroke-miterlimit: 2; opacity: 1;"><g class="fills"/><g class="errorbars"/><g class="lines"><path class="js-line" d="M0,384.51L70.7,382.99L80.8,382.86L151.5,380.81L161.6,379.75L181.8,378.11L191.9,377.09L222.2,372.2L232.3,367.73L242.4,365.23L252.5,361.91L262.6,358.59L272.7,356.39L282.8,350.21L292.9,346.23L333.3,331.52L343.4,326.31L353.5,315.22L363.6,309.35L383.8,298.81L393.9,294.68L404,290.55L414.1,287.8L424.2,283.88L434.3,282.7L454.5,283.01L464.6,281.97L474.7,282.01L484.8,283.07L525.2,285.98L535.3,288.93L545.4,293.72L555.5,295.57L585.8,302.29L595.9,309.4L636.3,326.87L646.4,330.8L656.5,335.07L666.6,343.88L686.8,352.4L696.9,356.38L717.1,364.68L727.2,367.43L737.3,372.36L747.4,374.54L797.9,380.26L808,380.8L838.3,381.93L848.4,382.12L888.8,382.79L898.9,382.83L969.6,382.81L979.7,382.42L989.8,382.13L999.9,380.18L1010,378.24" style="vector-effect: none; fill: none; stroke: rgb(92, 184, 92); stroke-opacity: 1; stroke-width: 2px; opacity: 1;"/></g><g class="points"/><g class="text"/></g><g class="trace scatter trace167aa9" style="stroke-miterlimit: 2; opacity: 1;"><g class="fills"/><g class="errorbars"/><g class="lines"><path class="js-line" d="M0,385L202,384.39L212.1,383.34L222.2,382.29L232.3,382.29L242.4,382.29L252.5,377.37L262.6,372.45L272.7,372.45L282.8,372.45L292.9,357.56L303,342.68L313.1,342.68L323.2,342.68L333.3,311.59L343.4,280.51L353.5,280.51L363.6,280.51L373.7,233.55L383.8,186.58L393.9,186.58L414.1,87.31L424.2,87.31L434.3,87.31L444.4,55.28L454.5,23.25L464.6,23.25L474.7,23.25L484.8,24.83L494.9,26.42L505,26.42L515.1,26.42L525.2,60.04L535.3,93.66L545.4,93.66L555.5,93.66L565.6,142.72L575.7,191.77L585.8,191.77L595.9,191.77L606,236.52L616.1,281.28L626.2,281.28L646.4,340.4L656.5,340.4L666.6,340.4L676.7,355.26L686.8,370.12L696.9,370.12L707,370.12L717.1,375.7L727.2,381.28L737.3,381.28L747.4,381.28L757.5,382.79L767.6,384.31L777.7,384.31L1010,384.76" style="vector-effect: none; fill: none; stroke: rgb(92, 184, 92); stroke-opacity: 1; stroke-width: 2px; opacity: 1;"/></g><g class="points"/><g class="text"/></g><g class="trace scatter trace5400a4" style="stroke-miterlimit: 2; opacity: 1;"><g class="fills"/><g class="errorbars"/><g class="lines"><path class="js-line" d="M0,384.5L70.7,383.05L80.8,382.93L151.5,381.02L161.6,379.97L181.8,378.37L191.9,377.37L222.2,372.56L232.3,368.16L242.4,365.7L252.5,362.41L262.6,359.11L272.7,356.96L282.8,350.85L292.9,346.9L333.3,332.4L343.4,327.28L353.5,316.3L363.6,310.45L383.8,299.9L393.9,295.78L404,291.66L414.1,288.89L424.2,284.9L434.3,283.68L454.5,284.15L464.6,283.02L474.7,282.97L484.8,284.04L525.2,286.33L535.3,289.38L545.4,294.03L555.5,295.65L585.8,302.1L595.9,309.34L626.2,322.98L636.3,327.03L656.5,335.3L666.6,344.1L686.8,352.74L696.9,356.79L717.1,364.99L727.2,367.71L737.3,372.63L747.4,374.82L808,380.96L818.1,381.48L898.9,382.93L909,382.99L979.7,382.65L989.8,382.42L1010,379.07" style="vector-effect: none; fill: none; stroke: rgb(92, 184, 92); stroke-opacity: 1; stroke-width: 2px; opacity: 1;"/></g><g class="points"/><g class="text"/></g><g class="trace scatter trace6aa852" style="stroke-miterlimit: 2; opacity: 1;"><g class="fills"/><g class="errorbars"/><g class="lines"><path class="js-line" d="M0,385L202,384.59L212.1,383.87L232.3,383.14L242.4,383.14L262.6,376.19L272.7,376.19L282.8,376.19L292.9,365.6L303,355.01L313.1,355.01L323.2,355.01L333.3,332.72L343.4,310.44L353.5,310.44L363.6,310.44L373.7,276.61L383.8,242.77L393.9,242.77L414.1,170.54L424.2,170.54L434.3,170.54L444.4,147L454.5,123.46L464.6,123.46L484.8,124.12L494.9,124.78L515.1,124.78L525.2,149.1L535.3,173.43L545.4,173.43L555.5,173.43L565.6,208.8L575.7,244.18L585.8,244.18L595.9,244.18L606,276.78L616.1,309.38L626.2,309.38L646.4,352.49L656.5,352.49L666.6,352.49L676.7,363.37L686.8,374.25L696.9,374.25L707,374.25L717.1,378.29L727.2,382.34L737.3,382.34L747.4,382.34L757.5,383.43L767.6,384.52L777.7,384.52L1010,384.96" style="vector-effect: none; fill: none; stroke: rgb(92, 184, 92); stroke-opacity: 1; stroke-width: 2px; opacity: 1;"/></g><g class="points"/><g class="text"/></g><g class="trace scatter trace765c49" style="stroke-miterlimit: 2; opacity: 1;"><g class="fills"/><g class="errorbars"/><g class="lines"><path class="js-line" d="M0,384.72L70.7,383.75L80.8,383.71L161.6,382.08L171.7,381.7L212.1,378.52L222.2,377.19L232.3,374.2L242.4,372.54L262.6,367.88L272.7,366.56L282.8,362.36L292.9,359.48L333.3,349.47L343.4,345.73L353.5,337.64L363.6,333.28L383.8,325.09L393.9,321.86L404,318.64L414.1,316.5L424.2,313.27L434.3,312.17L454.5,312.47L464.6,311.25L474.7,310.65L484.8,311.28L525.2,311.34L535.3,313.66L545.4,316.9L555.5,317.83L585.8,321.86L595.9,327.37L616.1,334.69L626.2,338.14L656.5,347.3L666.6,354.05L686.8,360.69L696.9,363.81L717.1,370.34L727.2,372.43L737.3,376.15L747.4,377.79L808,382.2L818.1,382.57L919.1,383.57L929.2,383.59L989.8,382.93L999.9,381.1L1010,379.27" style="vector-effect: none; fill: none; stroke: rgb(92, 184, 92); stroke-opacity: 1; stroke-width: 2px; opacity: 1;"/></g><g class="points"/><g class="text"/></g><g class="trace scatter tracebdddc5" style="stroke-miterlimit: 2; opacity: 1;"><g class="fills"/><g class="errorbars"/><g class="lines"><path class="js-line" d="M0,385L202,384.56L212.1,383.84L232.3,383.11L242.4,383.11L262.6,376.26L272.7,376.26L282.8,376.26L292.9,365.87L303,355.49L313.1,355.49L323.2,355.49L333.3,333.65L343.4,311.82L353.5,311.82L363.6,311.82L373.7,278.91L383.8,245.99L393.9,245.99L414.1,176.39L424.2,176.39L434.3,176.39L444.4,153.74L454.5,131.08L464.6,131.08L474.7,131.08L484.8,132.18L494.9,133.27L505,133.27L515.1,133.27L525.2,157.08L535.3,180.88L545.4,180.88L555.5,180.88L565.6,215.26L575.7,249.63L585.8,249.63L595.9,249.63L606,281.04L616.1,312.44L626.2,312.44L646.4,353.84L656.5,353.84L666.6,353.84L676.7,364.27L686.8,374.69L696.9,374.69L707,374.69L717.1,378.55L727.2,382.41L737.3,382.41L747.4,382.41L757.5,383.47L767.6,384.53L777.7,384.53L1010,384.91" style="vector-effect: none; fill: none; stroke: rgb(92, 184, 92); stroke-opacity: 1; stroke-width: 2px; opacity: 1;"/></g><g class="points"/><g class="text"/></g><g class="trace scatter trace3c4d34" style="stroke-miterlimit: 2; opacity: 1;"><g class="fills"/><g class="errorbars"/><g class="lines"><path class="js-line" d="M0,384.73L80.8,383.56L90.9,383.34L151.5,382.12L161.6,381.37L191.9,379.46L202,378.48L222.2,376.12L232.3,373.04L252.5,369.07L262.6,366.8L272.7,365.24L282.8,360.94L323.2,350.59L333.3,348.06L343.4,344.5L353.5,336.96L373.7,329.43L383.8,325.89L404,320.24L414.1,318.37L424.2,315.67L434.3,314.84L454.5,314.98L464.6,314.17L474.7,314.13L484.8,314.9L525.2,316.64L535.3,318.69L545.4,321.84L555.5,322.95L585.8,327.44L595.9,332.37L626.2,341.55L636.3,344.31L656.5,350.03L666.6,356.12L696.9,364.77L707,367.66L717.1,370.56L727.2,372.47L737.3,375.92L747.4,377.44L808,381.87L818.1,382.25L909,383.35L919.1,383.36L979.7,382.91L989.8,382.68L1010,379.65" style="vector-effect: none; fill: none; stroke: rgb(92, 184, 92); stroke-opacity: 1; stroke-width: 2px; opacity: 1;"/></g><g class="points"/><g class="text"/></g><g class="trace scatter trace47a258" style="stroke-miterlimit: 2; opacity: 1;"><g class="fills"/><g class="errorbars"/><g class="lines"><path class="js-line" d="M0,385L202,384.34L212.1,383.25L222.2,382.16L232.3,382.16L242.4,382.16L252.5,377.13L262.6,372.09L272.7,372.09L282.8,372.09L292.9,357L303,341.9L313.1,341.9L323.2,341.9L333.3,310.45L343.4,279L353.5,279L363.6,279L373.7,232.23L383.8,185.46L393.9,185.46L414.1,88.55L424.2,88.55L434.3,88.55L444.4,58.86L454.5,29.16L464.6,29.16L474.7,29.16L484.8,33.59L494.9,38.02L505,38.02L515.1,38.02L525.2,72.82L535.3,107.61L545.4,107.61L555.5,107.61L565.6,155.76L575.7,203.91L585.8,203.91L595.9,203.91L606,246.29L616.1,288.67L626.2,288.67L646.4,343.88L656.5,343.88L666.6,343.88L676.7,357.53L686.8,371.17L696.9,371.17L707,371.17L717.1,376.36L727.2,381.54L737.3,381.54L747.4,381.54L757.5,382.95L767.6,384.35L777.7,384.35L1010,384.94" style="vector-effect: none; fill: none; stroke: rgb(92, 184, 92); stroke-opacity: 1; stroke-width: 2px; opacity: 1;"/></g><g class="points"/><g class="text"/></g><g class="trace scatter trace816843" style="stroke-miterlimit: 2; opacity: 1;"><g class="fills"/><g class="errorbars"/><g class="lines"><path class="js-line" d="M0,384.59L70.7,383.18L80.8,383.06L151.5,381.19L161.6,380.21L191.9,377.81L202,376.52L222.2,373.56L232.3,369.85L252.5,365.14L262.6,362.47L272.7,360.51L282.8,354.77L303,347.67L313.1,344.35L333.3,338.14L343.4,333.31L353.5,322.57L363.6,316.65L393.9,302.12L404,297.75L414.1,294.03L424.2,288.57L434.3,286.81L444.4,286.49L474.7,285.37L484.8,286.59L515.1,287.7L525.2,287.79L535.3,291.1L545.4,296.19L575.7,302.04L585.8,304.1L595.9,310.25L606,314.33L636.3,324.7L646.4,327.7L656.5,331.98L666.6,340.95L686.8,349.67L696.9,353.72L717.1,363.49L727.2,366.45L737.3,371.77L747.4,374.14L777.7,376.85L787.8,378.83L818.1,381.11L828.2,381.41L888.8,382.5L898.9,382.55L969.6,382.47L979.7,382L989.8,381.65L999.9,379.31L1010,376.98" style="vector-effect: none; fill: none; stroke: rgb(92, 184, 92); stroke-opacity: 1; stroke-width: 2px; opacity: 1;"/></g><g class="points"/><g class="text"/></g><g class="trace scatter trace287d5f" style="stroke-miterlimit: 2; opacity: 1;"><g class="fills"/><g class="errorbars"/><g class="lines"><path class="js-line" d="M0,385L202,384.38L212.1,383.32L222.2,382.26L232.3,382.26L242.4,382.26L252.5,377.3L262.6,372.35L272.7,372.35L282.8,372.35L292.9,357.47L303,342.59L313.1,342.59L323.2,342.59L333.3,311.51L343.4,280.43L353.5,280.43L363.6,280.43L373.7,234.34L383.8,188.25L393.9,188.25L414.1,92.37L424.2,92.37L434.3,92.37L444.4,62.94L454.5,33.52L464.6,33.52L474.7,33.52L484.8,37.52L494.9,41.51L505,41.51L515.1,41.51L525.2,76.15L535.3,110.78L545.4,110.78L555.5,110.78L565.6,158.29L575.7,205.8L585.8,205.8L595.9,205.8L606,247.75L616.1,289.7L626.2,289.7L646.4,344.29L656.5,344.29L666.6,344.29L676.7,357.78L686.8,371.27L696.9,371.27L707,371.27L717.1,376.43L727.2,381.58L737.3,381.58L747.4,381.58L757.5,382.96L767.6,384.33L777.7,384.33L1010,384.81" style="vector-effect: none; fill: none; stroke: rgb(92, 184, 92); stroke-opacity: 1; stroke-width: 2px; opacity: 1;"/></g><g class="points"/><g class="text"/></g><g class="trace scatter trace1988b8" style="stroke-miterlimit: 2; opacity: 1;"><g class="fills"/><g class="errorbars"/><g class="lines"><path class="js-line" d="M0,384.58L70.7,383.21L80.8,383.11L151.5,381.34L161.6,380.38L191.9,377.99L202,376.75L222.2,373.82L232.3,370.13L252.5,365.46L262.6,362.81L272.7,360.94L282.8,355.29L303,348.28L313.1,345.06L333.3,338.89L343.4,334.04L353.5,323.48L363.6,317.77L383.8,307.43L393.9,303.19L414.1,295.19L424.2,289.65L434.3,287.88L444.4,287.69L454.5,287.5L464.6,286.43L474.7,286.56L484.8,287.76L515.1,288.51L525.2,288.49L535.3,291.91L545.4,296.97L585.8,304.26L595.9,310.33L616.1,318.29L626.2,322.06L646.4,327.89L656.5,332.18L666.6,341.19L676.7,345.91L707,358.96L717.1,363.83L727.2,366.78L737.3,372.06L747.4,374.4L757.5,375.23L777.7,377.01L787.8,378.97L808,380.61L818.1,381.22L888.8,382.6L898.9,382.66L969.6,382.66L979.7,382.27L989.8,381.98L999.9,379.97L1010,377.95" style="vector-effect: none; fill: none; stroke: rgb(92, 184, 92); stroke-opacity: 1; stroke-width: 2px; opacity: 1;"/></g><g class="points"/><g class="text"/></g><g class="trace scatter trace508dc3" style="stroke-miterlimit: 2; opacity: 1;"><g class="fills"/><g class="errorbars"/><g class="lines"><path class="js-line" d="M0,385L202,384.58L212.1,383.85L232.3,383.13L242.4,383.13L262.6,376.17L272.7,376.17L282.8,376.17L292.9,365.68L303,355.19L313.1,355.19L323.2,355.19L333.3,332.99L343.4,310.79L353.5,310.79L363.6,310.79L373.7,277.78L383.8,244.77L393.9,244.77L414.1,175.8L424.2,175.8L434.3,175.8L444.4,154.25L454.5,132.71L464.6,132.71L474.7,132.71L484.8,135.2L494.9,137.69L505,137.69L515.1,137.69L525.2,162.36L535.3,187.04L545.4,187.04L555.5,187.04L565.6,221.22L575.7,255.4L585.8,255.4L595.9,255.4L606,285.73L616.1,316.06L626.2,316.06L646.4,355.62L656.5,355.62L666.6,355.62L676.7,365.4L686.8,375.18L696.9,375.18L707,375.18L717.1,378.88L727.2,382.58L737.3,382.58L747.4,382.58L757.5,383.56L767.6,384.55L777.7,384.55L1010,384.97" style="vector-effect: none; fill: none; stroke: rgb(92, 184, 92); stroke-opacity: 1; stroke-width: 2px; opacity: 1;"/></g><g class="points"/><g class="text"/></g><g class="trace scatter traceb9342b" style="stroke-miterlimit: 2; opacity: 1;"><g class="fills"/><g class="errorbars"/><g class="lines"><path class="js-line" d="M0,384.78L70.7,383.89L80.8,383.84L171.7,382L181.8,381.42L212.1,379.24L222.2,378.14L232.3,375.69L242.4,374.35L272.7,369.53L282.8,365.69L303,360.82L313.1,358.65L333.3,354.57L343.4,351.1L353.5,343.36L363.6,339.08L393.9,327.99L404,324.62L414.1,321.71L424.2,317.29L434.3,315.78L444.4,315.7L454.5,315.63L464.6,314.47L474.7,314.19L484.8,315.06L515.1,314.15L525.2,313.46L535.3,316.06L545.4,319.62L585.8,323.98L595.9,328.49L616.1,334.71L626.2,337.53L646.4,341.57L656.5,344.86L666.6,351.69L676.7,355.24L707,365.57L717.1,369.46L727.2,371.69L737.3,375.67L747.4,377.42L757.5,377.99L777.7,379.23L787.8,380.69L818.1,382.37L828.2,382.56L909,383.34L919.1,383.36L979.7,382.85L989.8,382.58L1010,378.17" style="vector-effect: none; fill: none; stroke: rgb(92, 184, 92); stroke-opacity: 1; stroke-width: 2px; opacity: 1;"/></g><g class="points"/><g class="text"/></g><g class="trace scatter trace0c2c6c" style="stroke-miterlimit: 2; opacity: 1;"><g class="fills"/><g class="errorbars"/><g class="lines"><path class="js-line" d="M0,385L202,384.56L212.1,383.82L232.3,383.08L242.4,383.08L262.6,376.23L272.7,376.23L282.8,376.23L292.9,365.84L303,355.45L313.1,355.45L323.2,355.45L333.3,333.75L343.4,312.05L353.5,312.05L363.6,312.05L373.7,279.75L383.8,247.46L393.9,247.46L414.1,180.36L424.2,180.36L434.3,180.36L444.4,159.68L454.5,139L464.6,139L474.7,139L484.8,141.95L494.9,144.91L505,144.91L515.1,144.91L525.2,169.05L535.3,193.2L545.4,193.2L555.5,193.2L565.6,226.47L575.7,259.74L585.8,259.74L595.9,259.74L606,289.09L616.1,318.44L626.2,318.44L646.4,356.68L656.5,356.68L666.6,356.68L676.7,366.07L686.8,375.45L696.9,375.45L707,375.45L717.1,379.06L727.2,382.66L737.3,382.66L747.4,382.66L757.5,383.61L767.6,384.55L777.7,384.55L1010,384.92" style="vector-effect: none; fill: none; stroke: rgb(92, 184, 92); stroke-opacity: 1; stroke-width: 2px; opacity: 1;"/></g><g class="points"/><g class="text"/></g><g class="trace scatter trace65527f" style="stroke-miterlimit: 2; opacity: 1;"><g class="fills"/><g class="errorbars"/><g class="lines"><path class="js-line" d="M0,384.79L70.7,383.79L80.8,383.7L161.6,381.69L171.7,381.28L212.1,378.26L222.2,377.1L232.3,374.53L242.4,373.12L272.7,368.07L282.8,364.11L313.1,356.98L323.2,354.83L333.3,352.69L343.4,349.37L353.5,342.05L363.6,338.05L393.9,328.25L404,325.35L414.1,322.78L424.2,319.04L434.3,317.87L444.4,317.63L474.7,316.76L484.8,317.65L515.1,318.26L525.2,318.15L535.3,320.47L545.4,323.94L585.8,329.08L595.9,333.28L626.2,341.13L636.3,343.12L646.4,345.12L656.5,348.12L666.6,354.27L676.7,357.43L707,366.53L717.1,369.9L727.2,371.96L737.3,375.62L747.4,377.23L757.5,377.85L777.7,379.15L787.8,380.53L818.1,382.15L828.2,382.35L898.9,383.13L909,383.16L979.7,382.59L989.8,382.31L1010,378.62" style="vector-effect: none; fill: none; stroke: rgb(92, 184, 92); stroke-opacity: 1; stroke-width: 2px; opacity: 1;"/></g><g class="points"/><g class="text"/></g></g></g></g><path class="xlines-above crisp" d="M0,0" style="fill: none;"/><path class="ylines-above crisp" d="M0,0" style="fill: none;"/><g class="overlines-above"/><g class="xaxislayer-above"><g class="xtick"><text text-anchor="middle" x="0" y="451" transform="translate(64,0)" style="font-family: 'Lucida Grande', 'Open Sans', verdana, arial, sans-serif; font-size: 10px; fill: rgb(0, 0, 0); fill-opacity: 1; white-space: pre; opacity: 1;">0%</text></g><g class="xtick"><text text-anchor="middle" x="0" y="451" style="font-family: 'Lucida Grande', 'Open Sans', verdana, arial, sans-serif; font-size: 10px; fill: rgb(0, 0, 0); fill-opacity: 1; white-space: pre; opacity: 1;" transform="translate(266,0)">20%</text></g><g class="xtick"><text text-anchor="middle" x="0" y="451" style="font-family: 'Lucida Grande', 'Open Sans', verdana, arial, sans-serif; font-size: 10px; fill: rgb(0, 0, 0); fill-opacity: 1; white-space: pre; opacity: 1;" transform="translate(468,0)">40%</text></g><g class="xtick"><text text-anchor="middle" x="0" y="451" style="font-family: 'Lucida Grande', 'Open Sans', verdana, arial, sans-serif; font-size: 10px; fill: rgb(0, 0, 0); fill-opacity: 1; white-space: pre; opacity: 1;" transform="translate(670,0)">60%</text></g><g class="xtick"><text text-anchor="middle" x="0" y="451" style="font-family: 'Lucida Grande', 'Open Sans', verdana, arial, sans-serif; font-size: 10px; fill: rgb(0, 0, 0); fill-opacity: 1; white-space: pre; opacity: 1;" transform="translate(872,0)">80%</text></g><g class="xtick"><text text-anchor="middle" x="0" y="451" style="font-family: 'Lucida Grande', 'Open Sans', verdana, arial, sans-serif; font-size: 10px; fill: rgb(0, 0, 0); fill-opacity: 1; white-space: pre; opacity: 1;" transform="translate(1074,0)">100%</text></g></g><g class="yaxislayer-above"><g class="ytick"><text text-anchor="end" x="58" y="3.5" transform="translate(0,435)" style="font-family: 'Lucida Grande', 'Open Sans', verdana, arial, sans-serif; font-size: 10px; fill: rgb(0, 0, 0); fill-opacity: 1; white-space: pre; opacity: 1;">0</text></g><g class="ytick"><text text-anchor="end" x="58" y="3.5" style="font-family: 'Lucida Grande', 'Open Sans', verdana, arial, sans-serif; font-size: 10px; fill: rgb(0, 0, 0); fill-opacity: 1; white-space: pre; opacity: 1;" transform="translate(0,359.11)">2M</text></g><g class="ytick"><text text-anchor="end" x="58" y="3.5" style="font-family: 'Lucida Grande', 'Open Sans', verdana, arial, sans-serif; font-size: 10px; fill: rgb(0, 0, 0); fill-opacity: 1; white-space: pre; opacity: 1;" transform="translate(0,283.21000000000004)">4M</text></g><g class="ytick"><text text-anchor="end" x="58" y="3.5" style="font-family: 'Lucida Grande', 'Open Sans', verdana, arial, sans-serif; font-size: 10px; fill: rgb(0, 0, 0); fill-opacity: 1; white-space: pre; opacity: 1;" transform="translate(0,207.32)">6M</text></g><g class="ytick"><text text-anchor="end" x="58" y="3.5" style="font-family: 'Lucida Grande', 'Open Sans', verdana, arial, sans-serif; font-size: 10px; fill: rgb(0, 0, 0); fill-opacity: 1; white-space: pre; opacity: 1;" transform="translate(0,131.42000000000002)">8M</text></g><g class="ytick"><text text-anchor="end" x="58" y="3.5" style="font-family: 'Lucida Grande', 'Open Sans', verdana, arial, sans-serif; font-size: 10px; fill: rgb(0, 0, 0); fill-opacity: 1; white-space: pre; opacity: 1;" transform="translate(0,55.53)">10M</text></g></g><g class="overaxes-above"/></g></g><g class="polarlayer"/><g class="smithlayer"/><g class="ternarylayer"/><g class="geolayer"/><g class="funnelarealayer"/><g class="pielayer"/><g class="iciclelayer"/><g class="treemaplayer"/><g class="sunburstlayer"/><g class="glimages"/><defs id="topdefs-64d2c9"><g class="clips"/></defs><g class="layer-above"><g class="imagelayer"/><g class="shapelayer"/></g><g class="infolayer"><g class="g-gtitle"><text class="gtitle" x="550" y="25" text-anchor="middle" dy="0em" style="opacity: 1; font-family: 'Lucida Grande', 'Open Sans', verdana, arial, sans-serif; font-size: 20px; fill: rgb(42, 63, 95); fill-opacity: 1; white-space: pre;"><tspan class="line" dy="0em" x="550" y="25">FastQC: Per Sequence GC Content</tspan><tspan class="line" dy="1.3em" x="550" y="25">​<tspan style="font-size:70%" dy="-0.6em">Counts, 16 samples</tspan><tspan dy="0.42em">​</tspan></tspan></text></g><g class="g-xtitle"><text class="xtitle" x="569" y="472.3" text-anchor="middle" style="opacity: 0.3; font-family: 'Lucida Grande', 'Open Sans', verdana, arial, sans-serif; font-size: 14px; fill: rgb(0, 0, 0); fill-opacity: 1; white-space: pre;">% GC</text></g><g class="g-ytitle"><text class="ytitle" transform="rotate(-90,22.240625,242.5)" x="22.240625" y="242.5" text-anchor="middle" style="opacity: 0.3; font-family: 'Lucida Grande', 'Open Sans', verdana, arial, sans-serif; font-size: 14px; fill: rgb(0, 0, 0); fill-opacity: 1; white-space: pre;">Count</text></g></g></svg>