<svg class="main-svg" xmlns="http://www.w3.org/2000/svg" xmlns:xlink="http://www.w3.org/1999/xlink" width="2200" height="1000" style="" viewBox="0 0 1100 500"><rect x="0" y="0" width="1100" height="500" style="fill: rgb(255, 255, 255); fill-opacity: 1;"/><defs id="defs-05e2c1"><g class="clips"><clipPath id="clip05e2c1xyplot" class="plotclip"><rect width="1025" height="385"/></clipPath><clipPath class="axesclip" id="clip05e2c1x"><rect x="60" y="0" width="1025" height="500"/></clipPath><clipPath class="axesclip" id="clip05e2c1y"><rect x="0" y="50" width="1100" height="385"/></clipPath><clipPath class="axesclip" id="clip05e2c1xy"><rect x="60" y="50" width="1025" height="385"/></clipPath></g><g class="gradients"/><g class="patterns"/></defs><g class="bglayer"/><g class="layer-below"><g class="imagelayer"/><g class="shapelayer"><g class="shape-group" data-index="0" clip-path="url(#clip05e2c1y)"><path data-index="0" fill-rule="evenodd" d="M60,141.16H1085V-614.43H60Z" style="opacity: 1; stroke: rgb(0, 0, 0); stroke-opacity: 0; fill: rgb(195, 230, 195); fill-opacity: 1; stroke-width: 0px;"/></g><g class="shape-group" data-index="1" clip-path="url(#clip05e2c1y)"><path data-index="1" fill-rule="evenodd" d="M60,225.11H1085V141.16H60Z" style="opacity: 1; stroke: rgb(0, 0, 0); stroke-opacity: 0; fill: rgb(230, 220, 195); fill-opacity: 1; stroke-width: 0px;"/></g><g class="shape-group" data-index="2" clip-path="url(#clip05e2c1y)"><path data-index="2" fill-rule="evenodd" d="M60,435H1085V225.11H60Z" style="opacity: 1; stroke: rgb(0, 0, 0); stroke-opacity: 0; fill: rgb(230, 195, 195); fill-opacity: 1; stroke-width: 0px;"/></g><g class="shape-group" data-index="3" clip-path="url(#clip05e2c1y)"><path data-index="3" fill-rule="evenodd" d="M60,141.16H1085V-614.43H60Z" style="opacity: 1; stroke: rgb(0, 0, 0); stroke-opacity: 0; fill: rgb(195, 230, 195); fill-opacity: 1; stroke-width: 0px;"/></g><g class="shape-group" data-index="4" clip-path="url(#clip05e2c1y)"><path data-index="4" fill-rule="evenodd" d="M60,225.11H1085V141.16H60Z" style="opacity: 1; stroke: rgb(0, 0, 0); stroke-opacity: 0; fill: rgb(230, 220, 195); fill-opacity: 1; stroke-width: 0px;"/></g><g class="shape-group" data-index="5" clip-path="url(#clip05e2c1y)"><path data-index="5" fill-rule="evenodd" d="M60,435H1085V225.11H60Z" style="opacity: 1; stroke: rgb(0, 0, 0); stroke-opacity: 0; fill: rgb(230, 195, 195); fill-opacity: 1; stroke-width: 0px;"/></g></g></g><g class="cartesianlayer"><g class="subplot xy"><g class="layer-subplot"><g class="shapelayer"/><g class="imagelayer"/></g><g class="minor-gridlayer"><g class="x"/><g class="y"/></g><g class="gridlayer"><g class="x"><path class="xgrid crisp" transform="translate(236.72,0)" d="M0,50v385" style="stroke: rgb(0, 0, 0); stroke-opacity: 0.05; stroke-width: 1px;"/><path class="xgrid crisp" transform="translate(413.45,0)" d="M0,50v385" style="stroke: rgb(0, 0, 0); stroke-opacity: 0.05; stroke-width: 1px;"/><path class="xgrid crisp" transform="translate(590.17,0)" d="M0,50v385" style="stroke: rgb(0, 0, 0); stroke-opacity: 0.05; stroke-width: 1px;"/><path class="xgrid crisp" transform="translate(766.9,0)" d="M0,50v385" style="stroke: rgb(0, 0, 0); stroke-opacity: 0.05; stroke-width: 1px;"/><path class="xgrid crisp" transform="translate(943.62,0)" d="M0,50v385" style="stroke: rgb(0, 0, 0); stroke-opacity: 0.05; stroke-width: 1px;"/></g><g class="y"><path class="ygrid crisp" transform="translate(0,382.53)" d="M60,0h1025" style="stroke: rgb(0, 0, 0); stroke-opacity: 0.05; stroke-width: 1px;"/><path class="ygrid crisp" transform="translate(0,330.06)" d="M60,0h1025" style="stroke: rgb(0, 0, 0); stroke-opacity: 0.05; stroke-width: 1px;"/><path class="ygrid crisp" transform="translate(0,277.59000000000003)" d="M60,0h1025" style="stroke: rgb(0, 0, 0); stroke-opacity: 0.05; stroke-width: 1px;"/><path class="ygrid crisp" transform="translate(0,225.11)" d="M60,0h1025" style="stroke: rgb(0, 0, 0); stroke-opacity: 0.05; stroke-width: 1px;"/><path class="ygrid crisp" transform="translate(0,172.64)" d="M60,0h1025" style="stroke: rgb(0, 0, 0); stroke-opacity: 0.05; stroke-width: 1px;"/><path class="ygrid crisp" transform="translate(0,120.17)" d="M60,0h1025" style="stroke: rgb(0, 0, 0); stroke-opacity: 0.05; stroke-width: 1px;"/><path class="ygrid crisp" transform="translate(0,67.7)" d="M60,0h1025" style="stroke: rgb(0, 0, 0); stroke-opacity: 0.05; stroke-width: 1px;"/></g></g><g class="zerolinelayer"><path class="xzl zl crisp" transform="translate(60,0)" d="M0,50v385" style="stroke: rgb(0, 0, 0); stroke-opacity: 0.05; stroke-width: 2px;"/><path class="yzl zl crisp" transform="translate(0,435)" d="M60,0h1025" style="stroke: rgb(0, 0, 0); stroke-opacity: 0.05; stroke-width: 2px;"/></g><g class="layer-between"><g class="shapelayer"/><g class="imagelayer"/></g><path class="xlines-below"/><path class="ylines-below"/><g class="overlines-below"/><g class="xaxislayer-below"/><g class="yaxislayer-below"/><g class="overaxes-below"/><g class="overplot"><g class="xy" transform="translate(60,50)" clip-path="url(#clip05e2c1xyplot)"><g class="scatterlayer mlayer"><g class="trace scatter trace115bf2" style="stroke-miterlimit: 2; opacity: 1;"><g class="fills"/><g class="errorbars"/><g class="lines"><path class="js-line" d="M17.67,61.37L35.34,57.51L53.02,55.96L88.36,54.48L106.03,22.26L123.71,23.61L141.38,22.06L159.05,22.28L176.72,23.47L194.4,22.31L212.07,22.98L282.76,23.61L300.43,24.33L406.47,26.06L424.14,25.93L441.81,25.68L459.48,27.62" style="vector-effect: none; fill: none; stroke: rgb(92, 184, 92); stroke-opacity: 1; stroke-width: 2px; opacity: 1;"/></g><g class="points"/><g class="text"/></g><g class="trace scatter traceda0442" style="stroke-miterlimit: 2; opacity: 1;"><g class="fills"/><g class="errorbars"/><g class="lines"><path class="js-line" d="M17.67,92.99L35.34,92.42L53.02,92.97L88.36,96.19L106.03,70.94L159.05,74.29L176.72,76.5L212.07,76.66L229.74,78.31L247.41,79.83L265.09,80.12L282.76,79.37L300.43,80.7L335.78,81.25L353.45,81.46L371.12,82.08L388.79,81.48L459.48,82.93L477.16,82.18L583.19,87.27L600.86,87.64L742.24,89.64L759.91,90.22L812.93,90.63L830.6,90.74L848.28,91.29L865.95,91.06L883.62,91.68L901.29,91.28L954.31,91.95L971.98,91.98L1007.33,92.66L1025,112.66" style="vector-effect: none; fill: none; stroke: rgb(92, 184, 92); stroke-opacity: 1; stroke-width: 2px; opacity: 1;"/></g><g class="points"/><g class="text"/></g><g class="trace scatter trace74887a" style="stroke-miterlimit: 2; opacity: 1;"><g class="fills"/><g class="errorbars"/><g class="lines"><path class="js-line" d="M17.67,61.12L35.34,57.38L53.02,56.02L88.36,54.83L106.03,21.7L123.71,22.85L141.38,21.39L176.72,22.7L194.4,21.74L212.07,22.49L229.74,22.47L335.78,24.33L353.45,24.36L424.14,25.25L441.81,24.56L459.48,26.75" style="vector-effect: none; fill: none; stroke: rgb(92, 184, 92); stroke-opacity: 1; stroke-width: 2px; opacity: 1;"/></g><g class="points"/><g class="text"/></g><g class="trace scatter tracefcb2ef" style="stroke-miterlimit: 2; opacity: 1;"><g class="fills"/><g class="errorbars"/><g class="lines"><path class="js-line" d="M17.67,90.65L53.02,90.78L70.69,92.17L88.36,93.51L106.03,67.48L141.38,69.5L159.05,70.2L176.72,72.15L194.4,72.19L212.07,72.01L229.74,73.69L247.41,75.06L265.09,75.61L282.76,75.04L300.43,76.48L406.47,78.01L424.14,78.47L441.81,78.36L459.48,79.3L477.16,78.32L494.83,79.09L600.86,83.41L618.53,83.85L636.21,83.5L653.88,84.08L724.57,85.9L742.24,85.87L865.95,87.93L883.62,88.1L918.97,88.04L936.64,89.18L954.31,88.81L971.98,89.54L1007.33,89.32L1025,109.38" style="vector-effect: none; fill: none; stroke: rgb(92, 184, 92); stroke-opacity: 1; stroke-width: 2px; opacity: 1;"/></g><g class="points"/><g class="text"/></g><g class="trace scatter trace28f621" style="stroke-miterlimit: 2; opacity: 1;"><g class="fills"/><g class="errorbars"/><g class="lines"><path class="js-line" d="M17.67,60.22L35.34,56.29L53.02,55.03L88.36,53.76L106.03,19.52L123.71,20.21L141.38,19.13L159.05,19.06L176.72,19.85L194.4,18.92L212.07,19.52L441.81,21.69L459.48,23.17" style="vector-effect: none; fill: none; stroke: rgb(92, 184, 92); stroke-opacity: 1; stroke-width: 2px; opacity: 1;"/></g><g class="points"/><g class="text"/></g><g class="trace scatter trace94afac" style="stroke-miterlimit: 2; opacity: 1;"><g class="fills"/><g class="errorbars"/><g class="lines"><path class="js-line" d="M17.67,80.44L35.34,81.55L53.02,81.18L70.69,83.63L88.36,83.53L106.03,54.89L123.71,55.18L159.05,56.49L176.72,57.39L212.07,57.46L229.74,59.01L247.41,60.13L265.09,60.48L282.76,59.49L300.43,60.69L335.78,61.56L353.45,61.85L371.12,62.58L388.79,62.18L494.83,65.29L512.5,65.91L565.52,67.84L583.19,68.18L636.21,69.1L653.88,69.13L671.55,69.13L689.22,69.91L706.9,70.64L724.57,70.5L759.91,71.48L777.59,71.56L830.6,73.4L848.28,74.9L865.95,75.08L883.62,74.06L901.29,73.91L918.97,74.56L1007.33,75.67L1025,96.85" style="vector-effect: none; fill: none; stroke: rgb(92, 184, 92); stroke-opacity: 1; stroke-width: 2px; opacity: 1;"/></g><g class="points"/><g class="text"/></g><g class="trace scatter trace86c29d" style="stroke-miterlimit: 2; opacity: 1;"><g class="fills"/><g class="errorbars"/><g class="lines"><path class="js-line" d="M17.67,61.39L35.34,57.3L53.02,55.85L88.36,54.44L106.03,20.73L123.71,21.52L141.38,19.97L159.05,20.06L176.72,20.96L194.4,20.42L212.07,20.86L282.76,21.1L300.43,21.56L353.45,22.3L371.12,22.18L406.47,22.87L424.14,22.85L441.81,22.71L459.48,24.15" style="vector-effect: none; fill: none; stroke: rgb(92, 184, 92); stroke-opacity: 1; stroke-width: 2px; opacity: 1;"/></g><g class="points"/><g class="text"/></g><g class="trace scatter trace01b848" style="stroke-miterlimit: 2; opacity: 1;"><g class="fills"/><g class="errorbars"/><g class="lines"><path class="js-line" d="M17.67,96.99L35.34,95.63L53.02,98.5L70.69,98.34L88.36,100.64L106.03,75.56L123.71,76.36L159.05,77.05L176.72,79.73L212.07,79.11L229.74,80.86L247.41,82.64L265.09,82.52L282.76,82.02L300.43,83.26L335.78,83.86L353.45,84.45L388.79,83.99L406.47,85.03L424.14,84.78L441.81,85.77L459.48,85.07L477.16,82.65L494.83,84.81L512.5,84.75L565.52,86.93L583.19,87.43L600.86,89.98L618.53,89.28L653.88,88.53L671.55,88.99L706.9,89.47L724.57,89.82L777.59,91.45L795.26,91.09L812.93,91.8L830.6,95.5L848.28,93.58L865.95,92.85L883.62,93.68L901.29,92.53L936.64,92.75L954.31,92.73L971.98,92.37L989.66,92.78L1007.33,92.52L1025,113.84" style="vector-effect: none; fill: none; stroke: rgb(92, 184, 92); stroke-opacity: 1; stroke-width: 2px; opacity: 1;"/></g><g class="points"/><g class="text"/></g><g class="trace scatter trace55f43b" style="stroke-miterlimit: 2; opacity: 1;"><g class="fills"/><g class="errorbars"/><g class="lines"><path class="js-line" d="M17.67,60.14L35.34,56.84L53.02,55.48L88.36,54.22L106.03,21.34L123.71,22.86L141.38,21.58L159.05,21.49L176.72,22.76L194.4,21.79L212.07,21.95L247.41,22.61L265.09,22.52L318.1,23.88L335.78,24.43L424.14,25.15L441.81,24.89L459.48,26.7" style="vector-effect: none; fill: none; stroke: rgb(92, 184, 92); stroke-opacity: 1; stroke-width: 2px; opacity: 1;"/></g><g class="points"/><g class="text"/></g><g class="trace scatter trace942767" style="stroke-miterlimit: 2; opacity: 1;"><g class="fills"/><g class="errorbars"/><g class="lines"><path class="js-line" d="M17.67,91.92L35.34,90.91L53.02,91.38L88.36,94.42L106.03,69.12L141.38,71.73L159.05,72.37L176.72,74.95L194.4,74.7L212.07,75.01L229.74,76.64L247.41,78.05L265.09,78.46L282.76,77.77L300.43,79.14L353.45,80.2L371.12,80.78L388.79,80.23L406.47,80.63L459.48,81.76L477.16,81.09L583.19,86.23L600.86,86.62L883.62,90.7L901.29,90.36L954.31,90.94L971.98,90.95L1007.33,91.69L1025,111.95" style="vector-effect: none; fill: none; stroke: rgb(92, 184, 92); stroke-opacity: 1; stroke-width: 2px; opacity: 1;"/></g><g class="points"/><g class="text"/></g><g class="trace scatter trace46d311" style="stroke-miterlimit: 2; opacity: 1;"><g class="fills"/><g class="errorbars"/><g class="lines"><path class="js-line" d="M17.67,59.87L35.34,56.74L53.02,55.57L88.36,54.56L106.03,20.86L123.71,22.17L141.38,20.99L159.05,20.96L176.72,22.06L194.4,21.28L212.07,21.5L265.09,22.21L282.76,22.45L318.1,23.45L335.78,23.64L388.79,24.3L406.47,24.53L441.81,23.88L459.48,25.9" style="vector-effect: none; fill: none; stroke: rgb(92, 184, 92); stroke-opacity: 1; stroke-width: 2px; opacity: 1;"/></g><g class="points"/><g class="text"/></g><g class="trace scatter traced5c8ad" style="stroke-miterlimit: 2; opacity: 1;"><g class="fills"/><g class="errorbars"/><g class="lines"><path class="js-line" d="M17.67,89.86L53.02,89.55L70.69,90.98L88.36,92.12L106.03,66.1L123.71,67.57L141.38,68.05L159.05,68.82L176.72,71.08L212.07,70.87L229.74,72.57L265.09,74.44L282.76,74.03L300.43,75.44L318.1,75.82L371.12,76.8L388.79,76.82L459.48,78.63L477.16,77.71L618.53,83.34L636.21,83.02L724.57,85.42L742.24,85.46L918.97,87.57L936.64,88.71L954.31,88.33L971.98,89.04L1007.33,88.83L1025,109.11" style="vector-effect: none; fill: none; stroke: rgb(92, 184, 92); stroke-opacity: 1; stroke-width: 2px; opacity: 1;"/></g><g class="points"/><g class="text"/></g><g class="trace scatter tracec8596b" style="stroke-miterlimit: 2; opacity: 1;"><g class="fills"/><g class="errorbars"/><g class="lines"><path class="js-line" d="M17.67,58.8L35.34,55.53L53.02,54.53L88.36,53.49L106.03,18.65L123.71,19.5L141.38,18.7L159.05,18.33L176.72,19.17L194.4,18.38L212.07,18.6L229.74,19.16L247.41,18.83L318.1,19.58L335.78,20.09L441.81,20.97L459.48,22.31" style="vector-effect: none; fill: none; stroke: rgb(92, 184, 92); stroke-opacity: 1; stroke-width: 2px; opacity: 1;"/></g><g class="points"/><g class="text"/></g><g class="trace scatter trace521e0d" style="stroke-miterlimit: 2; opacity: 1;"><g class="fills"/><g class="errorbars"/><g class="lines"><path class="js-line" d="M17.67,79.43L35.34,80.09L53.02,79.68L70.69,82.17L88.36,82.01L106.03,53.11L123.71,53.5L141.38,53.67L159.05,54.73L176.72,55.91L194.4,55.89L212.07,55.9L229.74,57.51L265.09,58.88L282.76,58.14L300.43,59.3L318.1,59.57L371.12,61.36L388.79,61.1L512.5,64.95L530.17,65.82L583.19,67.3L600.86,67.78L653.88,68.3L671.55,68.35L706.9,69.75L724.57,69.7L759.91,70.66L777.59,70.78L830.6,72.62L848.28,74.08L865.95,74.28L883.62,73.27L918.97,73.79L936.64,73.95L989.66,74.65L1007.33,74.88L1025,96.32" style="vector-effect: none; fill: none; stroke: rgb(92, 184, 92); stroke-opacity: 1; stroke-width: 2px; opacity: 1;"/></g><g class="points"/><g class="text"/></g><g class="trace scatter trace8a233f" style="stroke-miterlimit: 2; opacity: 1;"><g class="fills"/><g class="errorbars"/><g class="lines"><path class="js-line" d="M17.67,60.14L35.34,56.67L53.02,55.35L88.36,54.17L106.03,19.91L123.71,20.86L141.38,19.56L159.05,19.39L176.72,20.33L212.07,19.93L229.74,20.26L300.43,20.97L318.1,21.31L406.47,22.18L424.14,22.16L441.81,22.02L459.48,23.35" style="vector-effect: none; fill: none; stroke: rgb(92, 184, 92); stroke-opacity: 1; stroke-width: 2px; opacity: 1;"/></g><g class="points"/><g class="text"/></g><g class="trace scatter tracecc9ec4" style="stroke-miterlimit: 2; opacity: 1;"><g class="fills"/><g class="errorbars"/><g class="lines"><path class="js-line" d="M17.67,96.01L35.34,94.17L53.02,96.94L70.69,96.8L88.36,98.81L106.03,73.8L123.71,74.8L159.05,75.22L176.72,78.26L212.07,77.48L229.74,79.24L247.41,80.83L265.09,80.96L282.76,80.49L300.43,81.74L335.78,82.57L353.45,83.25L388.79,82.8L406.47,83.9L424.14,83.58L441.81,84.7L459.48,83.92L477.16,81.43L494.83,83.52L512.5,83.46L565.52,85.83L583.19,86.35L600.86,88.85L618.53,88.15L653.88,87.45L671.55,87.91L706.9,88.34L724.57,88.74L759.91,89.83L777.59,90.38L795.26,90.06L812.93,90.76L830.6,94.44L848.28,92.5L865.95,91.82L883.62,92.61L901.29,91.48L918.97,91.76L1007.33,91.45L1025,113.06" style="vector-effect: none; fill: none; stroke: rgb(92, 184, 92); stroke-opacity: 1; stroke-width: 2px; opacity: 1;"/></g><g class="points"/><g class="text"/></g></g></g></g><path class="xlines-above crisp" d="M0,0" style="fill: none;"/><path class="ylines-above crisp" d="M0,0" style="fill: none;"/><g class="overlines-above"/><g class="xaxislayer-above"><g class="xtick"><text text-anchor="middle" x="0" y="451" transform="translate(60,0)" style="font-family: 'Lucida Grande', 'Open Sans', verdana, arial, sans-serif; font-size: 10px; fill: rgb(0, 0, 0); fill-opacity: 1; white-space: pre; opacity: 1;">0 bp</text></g><g class="xtick"><text text-anchor="middle" x="0" y="451" style="font-family: 'Lucida Grande', 'Open Sans', verdana, arial, sans-serif; font-size: 10px; fill: rgb(0, 0, 0); fill-opacity: 1; white-space: pre; opacity: 1;" transform="translate(236.72,0)">10 bp</text></g><g class="xtick"><text text-anchor="middle" x="0" y="451" style="font-family: 'Lucida Grande', 'Open Sans', verdana, arial, sans-serif; font-size: 10px; fill: rgb(0, 0, 0); fill-opacity: 1; white-space: pre; opacity: 1;" transform="translate(413.45,0)">20 bp</text></g><g class="xtick"><text text-anchor="middle" x="0" y="451" style="font-family: 'Lucida Grande', 'Open Sans', verdana, arial, sans-serif; font-size: 10px; fill: rgb(0, 0, 0); fill-opacity: 1; white-space: pre; opacity: 1;" transform="translate(590.17,0)">30 bp</text></g><g class="xtick"><text text-anchor="middle" x="0" y="451" style="font-family: 'Lucida Grande', 'Open Sans', verdana, arial, sans-serif; font-size: 10px; fill: rgb(0, 0, 0); fill-opacity: 1; white-space: pre; opacity: 1;" transform="translate(766.9,0)">40 bp</text></g><g class="xtick"><text text-anchor="middle" x="0" y="451" style="font-family: 'Lucida Grande', 'Open Sans', verdana, arial, sans-serif; font-size: 10px; fill: rgb(0, 0, 0); fill-opacity: 1; white-space: pre; opacity: 1;" transform="translate(943.62,0)">50 bp</text></g></g><g class="yaxislayer-above"><g class="ytick"><text text-anchor="end" x="54" y="3.5" transform="translate(0,435)" style="font-family: 'Lucida Grande', 'Open Sans', verdana, arial, sans-serif; font-size: 10px; fill: rgb(0, 0, 0); fill-opacity: 1; white-space: pre; opacity: 1;">0</text></g><g class="ytick"><text text-anchor="end" x="54" y="3.5" style="font-family: 'Lucida Grande', 'Open Sans', verdana, arial, sans-serif; font-size: 10px; fill: rgb(0, 0, 0); fill-opacity: 1; white-space: pre; opacity: 1;" transform="translate(0,382.53)">5</text></g><g class="ytick"><text text-anchor="end" x="54" y="3.5" style="font-family: 'Lucida Grande', 'Open Sans', verdana, arial, sans-serif; font-size: 10px; fill: rgb(0, 0, 0); fill-opacity: 1; white-space: pre; opacity: 1;" transform="translate(0,330.06)">10</text></g><g class="ytick"><text text-anchor="end" x="54" y="3.5" style="font-family: 'Lucida Grande', 'Open Sans', verdana, arial, sans-serif; font-size: 10px; fill: rgb(0, 0, 0); fill-opacity: 1; white-space: pre; opacity: 1;" transform="translate(0,277.59000000000003)">15</text></g><g class="ytick"><text text-anchor="end" x="54" y="3.5" style="font-family: 'Lucida Grande', 'Open Sans', verdana, arial, sans-serif; font-size: 10px; fill: rgb(0, 0, 0); fill-opacity: 1; white-space: pre; opacity: 1;" transform="translate(0,225.11)">20</text></g><g class="ytick"><text text-anchor="end" x="54" y="3.5" style="font-family: 'Lucida Grande', 'Open Sans', verdana, arial, sans-serif; font-size: 10px; fill: rgb(0, 0, 0); fill-opacity: 1; white-space: pre; opacity: 1;" transform="translate(0,172.64)">25</text></g><g class="ytick"><text text-anchor="end" x="54" y="3.5" style="font-family: 'Lucida Grande', 'Open Sans', verdana, arial, sans-serif; font-size: 10px; fill: rgb(0, 0, 0); fill-opacity: 1; white-space: pre; opacity: 1;" transform="translate(0,120.17)">30</text></g><g class="ytick"><text text-anchor="end" x="54" y="3.5" style="font-family: 'Lucida Grande', 'Open Sans', verdana, arial, sans-serif; font-size: 10px; fill: rgb(0, 0, 0); fill-opacity: 1; white-space: pre; opacity: 1;" transform="translate(0,67.7)">35</text></g></g><g class="overaxes-above"/></g></g><g class="polarlayer"/><g class="smithlayer"/><g class="ternarylayer"/><g class="geolayer"/><g class="funnelarealayer"/><g class="pielayer"/><g class="iciclelayer"/><g class="treemaplayer"/><g class="sunburstlayer"/><g class="glimages"/><defs id="topdefs-05e2c1"><g class="clips"/></defs><g class="layer-above"><g class="imagelayer"/><g class="shapelayer"/></g><g class="infolayer"><g class="g-gtitle"><text class="gtitle" x="550" y="25" text-anchor="middle" dy="0em" style="opacity: 1; font-family: 'Lucida Grande', 'Open Sans', verdana, arial, sans-serif; font-size: 20px; fill: rgb(42, 63, 95); fill-opacity: 1; white-space: pre;"><tspan class="line" dy="0em" x="550" y="25">FastQC: Mean Quality Scores</tspan><tspan class="line" dy="1.3em" x="550" y="25">​<tspan style="font-size:70%" dy="-0.6em">16 samples</tspan><tspan dy="0.42em">​</tspan></tspan></text></g><g class="g-xtitle"><text class="xtitle" x="572.5" y="472.3" text-anchor="middle" style="opacity: 0.3; font-family: 'Lucida Grande', 'Open Sans', verdana, arial, sans-serif; font-size: 14px; fill: rgb(0, 0, 0); fill-opacity: 1; white-space: pre;">Position (bp)</text></g><g class="g-ytitle"><text class="ytitle" transform="rotate(-90,26.865625,242.5)" x="26.865625" y="242.5" text-anchor="middle" style="opacity: 0.3; font-family: 'Lucida Grande', 'Open Sans', verdana, arial, sans-serif; font-size: 14px; fill: rgb(0, 0, 0); fill-opacity: 1; white-space: pre;">Phred Score</text></g></g></svg>